<svg width="16" height="16" viewBox="0 0 16 16" fill="none" xmlns="http://www.w3.org/2000/svg">
<g id="Frame">
<path id="Vector" fill-rule="evenodd" clip-rule="evenodd" d="M4.0001 1.6001C4.21227 1.6001 4.41575 1.68438 4.56578 1.83441C4.71581 1.98444 4.8001 2.18792 4.8001 2.4001V3.2001H5.6001C5.81227 3.2001 6.01575 3.28438 6.16578 3.43441C6.31581 3.58444 6.4001 3.78792 6.4001 4.0001C6.4001 4.21227 6.31581 4.41575 6.16578 4.56578C6.01575 4.71581 5.81227 4.8001 5.6001 4.8001H4.8001V5.6001C4.8001 5.81227 4.71581 6.01575 4.56578 6.16578C4.41575 6.31581 4.21227 6.4001 4.0001 6.4001C3.78792 6.4001 3.58444 6.31581 3.43441 6.16578C3.28438 6.01575 3.2001 5.81227 3.2001 5.6001V4.8001H2.4001C2.18792 4.8001 1.98444 4.71581 1.83441 4.56578C1.68438 4.41575 1.6001 4.21227 1.6001 4.0001C1.6001 3.78792 1.68438 3.58444 1.83441 3.43441C1.98444 3.28438 2.18792 3.2001 2.4001 3.2001H3.2001V2.4001C3.2001 2.18792 3.28438 1.98444 3.43441 1.83441C3.58444 1.68438 3.78792 1.6001 4.0001 1.6001ZM4.0001 9.6001C4.21227 9.6001 4.41575 9.68438 4.56578 9.83441C4.71581 9.98444 4.8001 10.1879 4.8001 10.4001V11.2001H5.6001C5.81227 11.2001 6.01575 11.2844 6.16578 11.4344C6.31581 11.5844 6.4001 11.7879 6.4001 12.0001C6.4001 12.2123 6.31581 12.4158 6.16578 12.5658C6.01575 12.7158 5.81227 12.8001 5.6001 12.8001H4.8001V13.6001C4.8001 13.8123 4.71581 14.0158 4.56578 14.1658C4.41575 14.3158 4.21227 14.4001 4.0001 14.4001C3.78792 14.4001 3.58444 14.3158 3.43441 14.1658C3.28438 14.0158 3.2001 13.8123 3.2001 13.6001V12.8001H2.4001C2.18792 12.8001 1.98444 12.7158 1.83441 12.5658C1.68438 12.4158 1.6001 12.2123 1.6001 12.0001C1.6001 11.7879 1.68438 11.5844 1.83441 11.4344C1.98444 11.2844 2.18792 11.2001 2.4001 11.2001H3.2001V10.4001C3.2001 10.1879 3.28438 9.98444 3.43441 9.83441C3.58444 9.68438 3.78792 9.6001 4.0001 9.6001ZM9.6001 1.6001C9.77665 1.60004 9.94826 1.65839 10.0882 1.76605C10.2281 1.87371 10.3285 2.02463 10.3737 2.1953L11.3169 5.7601L14.0001 7.3073C14.1217 7.37751 14.2227 7.4785 14.2929 7.60011C14.3631 7.72173 14.4001 7.85967 14.4001 8.0001C14.4001 8.14052 14.3631 8.27847 14.2929 8.40008C14.2227 8.52169 14.1217 8.62268 14.0001 8.6929L11.3169 10.2409L10.3729 13.8049C10.3276 13.9754 10.2273 14.1262 10.0874 14.2337C9.94758 14.3413 9.77611 14.3996 9.5997 14.3996C9.42329 14.3996 9.25182 14.3413 9.11198 14.2337C8.97214 14.1262 8.87178 13.9754 8.8265 13.8049L7.8833 10.2401L5.2001 8.6929C5.07849 8.62268 4.97751 8.52169 4.9073 8.40008C4.83709 8.27847 4.80013 8.14052 4.80013 8.0001C4.80013 7.85967 4.83709 7.72173 4.9073 7.60011C4.97751 7.4785 5.07849 7.37751 5.2001 7.3073L7.8833 5.7593L8.8273 2.1953C8.87246 2.02476 8.97272 1.87394 9.11249 1.76629C9.25226 1.65865 9.42368 1.60022 9.6001 1.6001V1.6001Z" fill="white"/>
</g>
</svg>
