<svg width="20" height="20" viewBox="0 0 20 20" fill="none" xmlns="http://www.w3.org/2000/svg">
<g id="Icon" clip-path="url(#clip0_29441_5111)">
<path id="Vector" d="M17.2603 6.56848L11.705 2.25163C11.2175 1.87272 10.6175 1.66699 9.99984 1.66699C9.38218 1.66699 8.78214 1.87272 8.29463 2.25163L2.73838 6.56848C2.40447 6.82791 2.13431 7.16015 1.94854 7.53982C1.76277 7.91949 1.6663 8.33656 1.6665 8.75916V16.2522C1.6665 16.8043 1.886 17.3337 2.2767 17.724C2.6674 18.1144 3.1973 18.3337 3.74984 18.3337H16.2498C16.8024 18.3337 17.3323 18.1144 17.723 17.724C18.1137 17.3337 18.3332 16.8043 18.3332 16.2522V8.75916C18.3332 7.90266 17.9373 7.09403 17.2603 6.56848Z" stroke="#100A55" stroke-width="2" stroke-linecap="round" stroke-linejoin="round"/>
</g>
<defs>
<clipPath id="clip0_29441_5111">
<rect width="20" height="20" fill="white"/>
</clipPath>
</defs>
</svg>
