<svg width="16" height="16" viewBox="0 0 16 16" fill="none" xmlns="http://www.w3.org/2000/svg">
<g id="Frame">
<path id="Vector" d="M8.00016 1.3335C4.32016 1.3335 1.3335 4.32016 1.3335 8.00016C1.3335 11.6802 4.32016 14.6668 8.00016 14.6668C11.6802 14.6668 14.6668 11.6802 14.6668 8.00016C14.6668 4.32016 11.6802 1.3335 8.00016 1.3335ZM5.82016 5.10683C6.36016 5.10683 6.80683 5.54683 6.80683 6.0935C6.80683 6.6335 6.36683 7.08016 5.82016 7.08016C5.28016 7.08016 4.8335 6.64016 4.8335 6.0935C4.8335 5.54683 5.2735 5.10683 5.82016 5.10683ZM5.90016 10.5335C5.80016 10.6335 5.6735 10.6802 5.54683 10.6802C5.42016 10.6802 5.2935 10.6335 5.1935 10.5335C5.00016 10.3402 5.00016 10.0202 5.1935 9.82683L9.56016 5.46016C9.7535 5.26683 10.0735 5.26683 10.2668 5.46016C10.4602 5.6535 10.4602 5.9735 10.2668 6.16683L5.90016 10.5335ZM10.1802 10.8935C9.64016 10.8935 9.1935 10.4535 9.1935 9.90683C9.1935 9.36683 9.6335 8.92016 10.1802 8.92016C10.7202 8.92016 11.1668 9.36016 11.1668 9.90683C11.1668 10.4535 10.7268 10.8935 10.1802 10.8935Z" fill="white"/>
</g>
</svg>
