<svg width="16" height="16" viewBox="0 0 16 16" fill="none" xmlns="http://www.w3.org/2000/svg">
<g id="Frame">
<path id="Vector" d="M12.36 2.78009L8.69337 1.40676C8.31337 1.26676 7.69337 1.26676 7.31337 1.40676L3.6467 2.78009C2.94003 3.04676 2.3667 3.87342 2.3667 4.62676V10.0268C2.3667 10.5668 2.72003 11.2801 3.15337 11.6001L6.82003 14.3401C7.4667 14.8268 8.5267 14.8268 9.17337 14.3401L12.84 11.6001C13.2734 11.2734 13.6267 10.5668 13.6267 10.0268V4.62676C13.6334 3.87342 13.06 3.04676 12.36 2.78009ZM8.50003 8.58009V10.3334C8.50003 10.6068 8.27337 10.8334 8.00003 10.8334C7.7267 10.8334 7.50003 10.6068 7.50003 10.3334V8.58009C6.8267 8.36676 6.33337 7.74009 6.33337 7.00009C6.33337 6.08009 7.08003 5.33343 8.00003 5.33343C8.92003 5.33343 9.6667 6.08009 9.6667 7.00009C9.6667 7.74676 9.17337 8.36676 8.50003 8.58009Z" fill="white"/>
</g>
</svg>
