<svg width="16" height="16" viewBox="0 0 16 16" fill="none" xmlns="http://www.w3.org/2000/svg">
<g id="Icon">
<path id="Vector" d="M7.49978 5.38672V7.29339L6.82645 7.06005C6.48645 6.94005 6.27979 6.82672 6.27979 6.24672C6.27979 5.77339 6.63312 5.38672 7.06645 5.38672H7.49978V5.38672Z" fill="white"/>
<path id="Vector_2" d="M9.72 9.75321C9.72 10.2265 9.36667 10.6132 8.93333 10.6132H8.5V8.70654L9.17333 8.93988C9.51333 9.05988 9.72 9.17321 9.72 9.75321Z" fill="white"/>
<path id="Vector_3" d="M10.7935 1.3335H5.20683C2.78016 1.3335 1.3335 2.78016 1.3335 5.20683V10.7935C1.3335 13.2202 2.78016 14.6668 5.20683 14.6668H10.7935C13.2202 14.6668 14.6668 13.2202 14.6668 10.7935V5.20683C14.6668 2.78016 13.2202 1.3335 10.7935 1.3335ZM9.50683 8.00016C10.0268 8.18016 10.7202 8.56016 10.7202 9.7535C10.7202 10.7802 9.92016 11.6135 8.9335 11.6135H8.50016V12.0002C8.50016 12.2735 8.2735 12.5002 8.00016 12.5002C7.72683 12.5002 7.50016 12.2735 7.50016 12.0002V11.6135H7.26016C6.16683 11.6135 5.28016 10.6868 5.28016 9.5535C5.28016 9.28016 5.50016 9.0535 5.78016 9.0535C6.0535 9.0535 6.28016 9.28016 6.28016 9.5535C6.28016 10.1402 6.72016 10.6135 7.26016 10.6135H7.50016V8.3535L6.4935 8.00016C5.9735 7.82016 5.28016 7.44016 5.28016 6.24683C5.28016 5.22016 6.08016 4.38683 7.06683 4.38683H7.50016V4.00016C7.50016 3.72683 7.72683 3.50016 8.00016 3.50016C8.2735 3.50016 8.50016 3.72683 8.50016 4.00016V4.38683H8.74016C9.8335 4.38683 10.7202 5.3135 10.7202 6.44683C10.7202 6.72016 10.5002 6.94683 10.2202 6.94683C9.94683 6.94683 9.72016 6.72016 9.72016 6.44683C9.72016 5.86016 9.28016 5.38683 8.74016 5.38683H8.50016V7.64683L9.50683 8.00016Z" fill="white"/>
</g>
</svg>
