<svg width="16" height="16" viewBox="0 0 16 16" fill="none" xmlns="http://www.w3.org/2000/svg">
<g id="Icon">
<g id="vuesax/bold/house-2">
<g id="house-2">
<path id="Vector" d="M6.6665 10.3335C6.39317 10.3335 6.1665 10.5602 6.1665 10.8335V11.8335C6.1665 12.1068 6.39317 12.3335 6.6665 12.3335C6.93984 12.3335 7.1665 12.1068 7.1665 11.8335V10.8335C7.1665 10.5602 6.93984 10.3335 6.6665 10.3335Z" fill="white"/>
<path id="Vector_2" d="M14.6668 14.1668H14.0002V6.65348C14.0002 6.24014 13.8135 5.85348 13.4868 5.60014L8.82016 1.97348C8.34016 1.59348 7.66016 1.59348 7.18016 1.97348L2.5135 5.60014C2.18683 5.85348 2.00016 6.24014 2.00016 6.64681L1.96683 14.1668H1.3335C1.06016 14.1668 0.833496 14.3868 0.833496 14.6668C0.833496 14.9401 1.06016 15.1668 1.3335 15.1668H14.6668C14.9402 15.1668 15.1668 14.9401 15.1668 14.6668C15.1668 14.3868 14.9402 14.1668 14.6668 14.1668ZM7.00016 4.50014H9.00016C9.2735 4.50014 9.50016 4.72681 9.50016 5.00014C9.50016 5.27348 9.2735 5.50014 9.00016 5.50014H7.00016C6.72683 5.50014 6.50016 5.27348 6.50016 5.00014C6.50016 4.72681 6.72683 4.50014 7.00016 4.50014ZM11.3335 14.1668H4.66683V8.33348C4.66683 7.78014 5.1135 7.33348 5.66683 7.33348H10.3335C10.8868 7.33348 11.3335 7.78014 11.3335 8.33348V14.1668Z" fill="white"/>
</g>
</g>
</g>
</svg>
