<svg width="32" height="32" viewBox="0 0 32 32" fill="none" xmlns="http://www.w3.org/2000/svg">
<g id="Icon">
<path id="Vector" d="M15.9998 28L29.3332 18.6667H24.0132L23.9998 4H7.99984V18.6667H2.6665L15.9998 28Z" fill="white" stroke="white" stroke-width="2" stroke-linecap="round" stroke-linejoin="round"/>
<g id="Vector_2" filter="url(#filter0_d_224_7668)">
<path d="M12 18.6665L20 10.6665" stroke="#7065F0" stroke-width="2" stroke-linecap="round" stroke-linejoin="round"/>
</g>
<g id="Vector_3" filter="url(#filter1_d_224_7668)">
<path d="M12.6667 11.9998C13.0349 11.9998 13.3333 11.7014 13.3333 11.3332C13.3333 10.965 13.0349 10.6665 12.6667 10.6665C12.2985 10.6665 12 10.965 12 11.3332C12 11.7014 12.2985 11.9998 12.6667 11.9998Z" fill="#7065F0"/>
<path d="M12.6667 11.9998C13.0349 11.9998 13.3333 11.7014 13.3333 11.3332C13.3333 10.965 13.0349 10.6665 12.6667 10.6665C12.2985 10.6665 12 10.965 12 11.3332C12 11.7014 12.2985 11.9998 12.6667 11.9998Z" stroke="#7065F0" stroke-width="2" stroke-linecap="round" stroke-linejoin="round"/>
</g>
<path id="Vector_4" d="M19.3332 18.6668C19.7014 18.6668 19.9998 18.3684 19.9998 18.0002C19.9998 17.632 19.7014 17.3335 19.3332 17.3335C18.965 17.3335 18.6665 17.632 18.6665 18.0002C18.6665 18.3684 18.965 18.6668 19.3332 18.6668Z" fill="#7065F0" stroke="#7065F0" stroke-width="2" stroke-linecap="round" stroke-linejoin="round"/>
</g>
<defs>
<filter id="filter0_d_224_7668" x="9" y="7.6665" width="18" height="18" filterUnits="userSpaceOnUse" color-interpolation-filters="sRGB">
<feFlood flood-opacity="0" result="BackgroundImageFix"/>
<feColorMatrix in="SourceAlpha" type="matrix" values="0 0 0 0 0 0 0 0 0 0 0 0 0 0 0 0 0 0 127 0" result="hardAlpha"/>
<feOffset dx="2" dy="2"/>
<feGaussianBlur stdDeviation="2"/>
<feComposite in2="hardAlpha" operator="out"/>
<feColorMatrix type="matrix" values="0 0 0 0 0.439216 0 0 0 0 0.396078 0 0 0 0 0.941176 0 0 0 0.1 0"/>
<feBlend mode="normal" in2="BackgroundImageFix" result="effect1_dropShadow_224_7668"/>
<feBlend mode="normal" in="SourceGraphic" in2="effect1_dropShadow_224_7668" result="shape"/>
</filter>
<filter id="filter1_d_224_7668" x="9" y="7.6665" width="11.3335" height="11.3335" filterUnits="userSpaceOnUse" color-interpolation-filters="sRGB">
<feFlood flood-opacity="0" result="BackgroundImageFix"/>
<feColorMatrix in="SourceAlpha" type="matrix" values="0 0 0 0 0 0 0 0 0 0 0 0 0 0 0 0 0 0 127 0" result="hardAlpha"/>
<feOffset dx="2" dy="2"/>
<feGaussianBlur stdDeviation="2"/>
<feComposite in2="hardAlpha" operator="out"/>
<feColorMatrix type="matrix" values="0 0 0 0 0.439216 0 0 0 0 0.396078 0 0 0 0 0.941176 0 0 0 0.1 0"/>
<feBlend mode="normal" in2="BackgroundImageFix" result="effect1_dropShadow_224_7668"/>
<feBlend mode="normal" in="SourceGraphic" in2="effect1_dropShadow_224_7668" result="shape"/>
</filter>
</defs>
</svg>
