<svg width="32" height="32" viewBox="0 0 32 32" fill="none" xmlns="http://www.w3.org/2000/svg">
<g id="Icon" clip-path="url(#clip0_224_7638)">
<g id="Union">
<path fill-rule="evenodd" clip-rule="evenodd" d="M2.6665 15.9998H5.62939V26.3702C5.62939 27.156 5.94156 27.9097 6.49723 28.4653C7.05289 29.021 7.80653 29.3332 8.59236 29.3332H23.4072C24.193 29.3332 24.9466 29.021 25.5023 28.4653C26.058 27.9097 26.3701 27.156 26.3701 26.3702V15.9998H26.3702H29.3332L15.9998 2.6665L2.6665 15.9998Z" fill="white"/>
<path d="M5.62939 15.9998H6.62939C6.62939 15.4476 6.18168 14.9998 5.62939 14.9998V15.9998ZM2.6665 15.9998L1.9594 15.2927C1.6734 15.5787 1.58784 16.0088 1.74262 16.3825C1.89741 16.7562 2.26204 16.9998 2.6665 16.9998L2.6665 15.9998ZM6.49723 28.4653L7.20433 27.7582L6.49723 28.4653ZM25.5023 28.4653L24.7952 27.7582L24.7952 27.7582L25.5023 28.4653ZM26.3701 15.9998V14.9998C25.8179 14.9998 25.3701 15.4476 25.3701 15.9998H26.3701ZM29.3332 15.9998V16.9998C29.7376 16.9998 30.1023 16.7562 30.2571 16.3825C30.4118 16.0088 30.3263 15.5787 30.0403 15.2927L29.3332 15.9998ZM15.9998 2.6665L16.7069 1.9594C16.3164 1.56887 15.6833 1.56887 15.2927 1.9594L15.9998 2.6665ZM5.62939 14.9998H2.6665V16.9998H5.62939V14.9998ZM4.62939 15.9998V26.3702H6.62939V15.9998H4.62939ZM4.62939 26.3702C4.62939 27.4213 5.04692 28.4292 5.79012 29.1724L7.20433 27.7582C6.83621 27.3901 6.62939 26.8908 6.62939 26.3702H4.62939ZM5.79012 29.1724C6.53332 29.9156 7.54131 30.3332 8.59236 30.3332V28.3332C8.07175 28.3332 7.57246 28.1264 7.20433 27.7582L5.79012 29.1724ZM8.59236 30.3332H23.4072V28.3332H8.59236V30.3332ZM23.4072 30.3332C24.4582 30.3332 25.4662 29.9156 26.2094 29.1724L24.7952 27.7582C24.4271 28.1264 23.9278 28.3332 23.4072 28.3332V30.3332ZM26.2094 29.1724C26.9526 28.4292 27.3701 27.4213 27.3701 26.3702H25.3701C25.3701 26.8908 25.1633 27.3901 24.7952 27.7582L26.2094 29.1724ZM27.3701 26.3702V15.9998H25.3701V26.3702H27.3701ZM26.3702 14.9998H26.3701V16.9998H26.3702V14.9998ZM29.3332 14.9998H26.3702V16.9998H29.3332V14.9998ZM15.2927 3.37361L28.6261 16.7069L30.0403 15.2927L16.7069 1.9594L15.2927 3.37361ZM3.37361 16.7069L16.7069 3.37361L15.2927 1.9594L1.9594 15.2927L3.37361 16.7069Z" fill="white"/>
</g>
<path id="Vector" d="M12 18.0002L14.6667 20.6668L20 15.3335" stroke="#7065F0" stroke-width="2" stroke-linecap="round" stroke-linejoin="round"/>
</g>
<defs>
<clipPath id="clip0_224_7638">
<rect width="32" height="32" fill="white"/>
</clipPath>
</defs>
</svg>
