<svg width="32" height="32" viewBox="0 0 32 32" fill="none" xmlns="http://www.w3.org/2000/svg">
<g id="Icon" clip-path="url(#clip0_224_7679)">
<g id="Vector" filter="url(#filter0_d_224_7679)">
<path d="M5.3335 10.6668V8.00016C5.3335 7.29292 5.61445 6.61464 6.11454 6.11454C6.61464 5.61445 7.29292 5.3335 8.00016 5.3335H10.6668" stroke="white" stroke-width="2" stroke-linecap="round" stroke-linejoin="round" shape-rendering="crispEdges"/>
</g>
<g id="Vector_2" filter="url(#filter1_d_224_7679)">
<path d="M5.3335 21.3335V24.0002C5.3335 24.7074 5.61445 25.3857 6.11454 25.8858C6.61464 26.3859 7.29292 26.6668 8.00016 26.6668H10.6668" stroke="white" stroke-width="2" stroke-linecap="round" stroke-linejoin="round" shape-rendering="crispEdges"/>
</g>
<path id="Vector_3" d="M21.3335 5.3335H24.0002C24.7074 5.3335 25.3857 5.61445 25.8858 6.11454C26.3859 6.61464 26.6668 7.29292 26.6668 8.00016V10.6668" stroke="white" stroke-width="2" stroke-linecap="round" stroke-linejoin="round"/>
<path id="Vector_4" d="M21.3335 26.6668H24.0002C24.7074 26.6668 25.3857 26.3859 25.8858 25.8858C26.3859 25.3857 26.6668 24.7074 26.6668 24.0002V21.3335" stroke="white" stroke-width="2" stroke-linecap="round" stroke-linejoin="round"/>
<path id="Vector_5" d="M15.9998 24L11.3332 17.3333C10.8839 16.5213 10.6543 15.6062 10.667 14.6784C10.6797 13.7505 10.9343 12.842 11.4055 12.0426C11.8768 11.2433 12.5485 10.5807 13.3543 10.1204C14.16 9.66008 15.0719 9.41797 15.9998 9.41797C16.9278 9.41797 17.8397 9.66008 18.6454 10.1204C19.4512 10.5807 20.1228 11.2433 20.5941 12.0426C21.0654 12.842 21.32 13.7505 21.3327 14.6784C21.3454 15.6062 21.1157 16.5213 20.6665 17.3333L15.9998 24Z" fill="white" stroke="white" stroke-width="2" stroke-linecap="round" stroke-linejoin="round"/>
<path id="Vector_6" d="M16 14.6665V14.6798" stroke="#7065F0" stroke-width="6" stroke-linecap="round" stroke-linejoin="round"/>
</g>
<defs>
<filter id="filter0_d_224_7679" x="2.3335" y="2.3335" width="15.3335" height="15.3335" filterUnits="userSpaceOnUse" color-interpolation-filters="sRGB">
<feFlood flood-opacity="0" result="BackgroundImageFix"/>
<feColorMatrix in="SourceAlpha" type="matrix" values="0 0 0 0 0 0 0 0 0 0 0 0 0 0 0 0 0 0 127 0" result="hardAlpha"/>
<feOffset dx="2" dy="2"/>
<feGaussianBlur stdDeviation="2"/>
<feComposite in2="hardAlpha" operator="out"/>
<feColorMatrix type="matrix" values="0 0 0 0 0.439216 0 0 0 0 0.396078 0 0 0 0 0.941176 0 0 0 0.1 0"/>
<feBlend mode="normal" in2="BackgroundImageFix" result="effect1_dropShadow_224_7679"/>
<feBlend mode="normal" in="SourceGraphic" in2="effect1_dropShadow_224_7679" result="shape"/>
</filter>
<filter id="filter1_d_224_7679" x="2.3335" y="18.3335" width="15.3335" height="15.3335" filterUnits="userSpaceOnUse" color-interpolation-filters="sRGB">
<feFlood flood-opacity="0" result="BackgroundImageFix"/>
<feColorMatrix in="SourceAlpha" type="matrix" values="0 0 0 0 0 0 0 0 0 0 0 0 0 0 0 0 0 0 127 0" result="hardAlpha"/>
<feOffset dx="2" dy="2"/>
<feGaussianBlur stdDeviation="2"/>
<feComposite in2="hardAlpha" operator="out"/>
<feColorMatrix type="matrix" values="0 0 0 0 0.439216 0 0 0 0 0.396078 0 0 0 0 0.941176 0 0 0 0.1 0"/>
<feBlend mode="normal" in2="BackgroundImageFix" result="effect1_dropShadow_224_7679"/>
<feBlend mode="normal" in="SourceGraphic" in2="effect1_dropShadow_224_7679" result="shape"/>
</filter>
<clipPath id="clip0_224_7679">
<rect width="32" height="32" fill="white"/>
</clipPath>
</defs>
</svg>
