<svg width="32" height="32" viewBox="0 0 32 32" fill="none" xmlns="http://www.w3.org/2000/svg">
<g id="Icon">
<path id="Vector" d="M29.0733 13.388H27.9993V13.3327H15.9993V18.666H23.5347C22.4354 21.7707 19.4813 23.9993 15.9993 23.9993C11.5813 23.9993 7.99935 20.4173 7.99935 15.9993C7.99935 11.5813 11.5813 7.99935 15.9993 7.99935C18.0387 7.99935 19.894 8.76868 21.3067 10.0253L25.078 6.25402C22.6967 4.03468 19.5113 2.66602 15.9993 2.66602C8.63602 2.66602 2.66602 8.63602 2.66602 15.9993C2.66602 23.3627 8.63602 29.3327 15.9993 29.3327C23.3627 29.3327 29.3327 23.3627 29.3327 15.9993C29.3327 15.1053 29.2407 14.2327 29.0733 13.388Z" fill="#FFC107"/>
<path id="Vector_2" d="M4.20508 9.79335L8.58574 13.006C9.77108 10.0713 12.6417 7.99935 16.0011 7.99935C18.0404 7.99935 19.8957 8.76868 21.3084 10.0253L25.0797 6.25402C22.6984 4.03468 19.5131 2.66602 16.0011 2.66602C10.8797 2.66602 6.43841 5.55735 4.20508 9.79335Z" fill="#FF3D00"/>
<path id="Vector_3" d="M16.0009 29.3338C19.4449 29.3338 22.5742 28.0158 24.9402 25.8725L20.8135 22.3805C19.4299 23.4327 17.7392 24.0018 16.0009 24.0005C12.5329 24.0005 9.58819 21.7891 8.47886 18.7031L4.13086 22.0531C6.33753 26.3711 10.8189 29.3338 16.0009 29.3338Z" fill="#4CAF50"/>
<path id="Vector_4" d="M29.074 13.3893H28V13.334H16V18.6673H23.5353C23.0095 20.1449 22.0622 21.4361 20.8107 22.3813L20.8127 22.38L24.9393 25.872C24.6473 26.1373 29.3333 22.6673 29.3333 16.0007C29.3333 15.1067 29.2413 14.234 29.074 13.3893Z" fill="#1976D2"/>
</g>
</svg>
