<svg width="49" height="51" viewBox="0 0 49 51" fill="none" xmlns="http://www.w3.org/2000/svg">
<g id="Icon">
<g id="user">
<g id="Vector" filter="url(#filter0_d_185_7141)">
<path d="M24 24C29.5228 24 34 19.5228 34 14C34 8.47715 29.5228 4 24 4C18.4772 4 14 8.47715 14 14C14 19.5228 18.4772 24 24 24Z" fill="white"/>
</g>
<g id="Vector_2" filter="url(#filter1_d_185_7141)">
<path d="M24.0003 29C13.9803 29 5.82031 35.72 5.82031 44C5.82031 44.56 6.26031 45 6.82031 45H41.1803C41.7403 45 42.1803 44.56 42.1803 44C42.1803 35.72 34.0203 29 24.0003 29Z" fill="white"/>
</g>
</g>
</g>
<defs>
<filter id="filter0_d_185_7141" x="12" y="2" width="28" height="28" filterUnits="userSpaceOnUse" color-interpolation-filters="sRGB">
<feFlood flood-opacity="0" result="BackgroundImageFix"/>
<feColorMatrix in="SourceAlpha" type="matrix" values="0 0 0 0 0 0 0 0 0 0 0 0 0 0 0 0 0 0 127 0" result="hardAlpha"/>
<feOffset dx="2" dy="2"/>
<feGaussianBlur stdDeviation="2"/>
<feComposite in2="hardAlpha" operator="out"/>
<feColorMatrix type="matrix" values="0 0 0 0 0.439216 0 0 0 0 0.396078 0 0 0 0 0.941176 0 0 0 0.1 0"/>
<feBlend mode="normal" in2="BackgroundImageFix" result="effect1_dropShadow_185_7141"/>
<feBlend mode="normal" in="SourceGraphic" in2="effect1_dropShadow_185_7141" result="shape"/>
</filter>
<filter id="filter1_d_185_7141" x="3.82031" y="27" width="44.3594" height="24" filterUnits="userSpaceOnUse" color-interpolation-filters="sRGB">
<feFlood flood-opacity="0" result="BackgroundImageFix"/>
<feColorMatrix in="SourceAlpha" type="matrix" values="0 0 0 0 0 0 0 0 0 0 0 0 0 0 0 0 0 0 127 0" result="hardAlpha"/>
<feOffset dx="2" dy="2"/>
<feGaussianBlur stdDeviation="2"/>
<feComposite in2="hardAlpha" operator="out"/>
<feColorMatrix type="matrix" values="0 0 0 0 0.439216 0 0 0 0 0.396078 0 0 0 0 0.941176 0 0 0 0.1 0"/>
<feBlend mode="normal" in2="BackgroundImageFix" result="effect1_dropShadow_185_7141"/>
<feBlend mode="normal" in="SourceGraphic" in2="effect1_dropShadow_185_7141" result="shape"/>
</filter>
</defs>
</svg>
