<svg width="32" height="32" viewBox="0 0 32 32" fill="none" xmlns="http://www.w3.org/2000/svg">
<g id="Button">
<path id="plus" fill-rule="evenodd" clip-rule="evenodd" d="M28 15.999C28 19.1816 26.7357 22.2339 24.4853 24.4843C22.2348 26.7347 19.1826 27.999 16 27.999C12.8174 27.999 9.76516 26.7347 7.51472 24.4843C5.26428 22.2339 4 19.1816 4 15.999C4 12.8164 5.26428 9.76418 7.51472 7.51374C9.76516 5.26331 12.8174 3.99902 16 3.99902C19.1826 3.99902 22.2348 5.26331 24.4853 7.51374C26.7357 9.76418 28 12.8164 28 15.999ZM16.75 9.99902C16.75 9.80011 16.671 9.60935 16.5303 9.46869C16.3897 9.32804 16.1989 9.24902 16 9.24902C15.8011 9.24902 15.6103 9.32804 15.4697 9.46869C15.329 9.60935 15.25 9.80011 15.25 9.99902V15.249H10C9.80109 15.249 9.61032 15.328 9.46967 15.4687C9.32902 15.6093 9.25 15.8001 9.25 15.999C9.25 16.1979 9.32902 16.3887 9.46967 16.5294C9.61032 16.67 9.80109 16.749 10 16.749H15.25V21.999C15.25 22.1979 15.329 22.3887 15.4697 22.5294C15.6103 22.67 15.8011 22.749 16 22.749C16.1989 22.749 16.3897 22.67 16.5303 22.5294C16.671 22.3887 16.75 22.1979 16.75 21.999V16.749H22C22.1989 16.749 22.3897 16.67 22.5303 16.5294C22.671 16.3887 22.75 16.1979 22.75 15.999C22.75 15.8001 22.671 15.6093 22.5303 15.4687C22.3897 15.328 22.1989 15.249 22 15.249H16.75V9.99902Z" fill="#7065F0"/>
</g>
</svg>
