<svg width="16" height="16" viewBox="0 0 16 16" fill="none" xmlns="http://www.w3.org/2000/svg">
<g id="Icon">
<g id="gallery">
<path id="Vector" d="M6.00016 14.6663H10.0002C13.3335 14.6663 14.6668 13.333 14.6668 9.99967V5.99967C14.6668 2.66634 13.3335 1.33301 10.0002 1.33301H6.00016C2.66683 1.33301 1.3335 2.66634 1.3335 5.99967V9.99967C1.3335 13.333 2.66683 14.6663 6.00016 14.6663Z" stroke="#7065F0" stroke-width="1.5" stroke-linecap="round" stroke-linejoin="round"/>
<path id="Vector_2" d="M5.99984 6.66667C6.73622 6.66667 7.33317 6.06971 7.33317 5.33333C7.33317 4.59695 6.73622 4 5.99984 4C5.26346 4 4.6665 4.59695 4.6665 5.33333C4.6665 6.06971 5.26346 6.66667 5.99984 6.66667Z" stroke="#7065F0" stroke-width="1.5" stroke-linecap="round" stroke-linejoin="round"/>
<path id="Vector_3" d="M1.77979 12.633L5.06645 10.4264C5.59312 10.073 6.35312 10.113 6.82645 10.5197L7.04645 10.713C7.56645 11.1597 8.40645 11.1597 8.92645 10.713L11.6998 8.33305C12.2198 7.88638 13.0598 7.88638 13.5798 8.33305L14.6665 9.26638" stroke="#7065F0" stroke-width="1.5" stroke-linecap="round" stroke-linejoin="round"/>
</g>
</g>
</svg>
