<svg width="16" height="16" viewBox="0 0 16 16" fill="none" xmlns="http://www.w3.org/2000/svg">
<g id="Icon">
<path id="Vector" d="M2.87869 3.54568C2.60011 3.82426 2.37913 4.15498 2.22836 4.51896C2.0776 4.88294 2 5.27305 2 5.66702C2 6.06099 2.0776 6.4511 2.22836 6.81508C2.37913 7.17906 2.60011 7.50978 2.87869 7.78835L8.00003 12.9097L13.1214 7.78835C13.684 7.22574 14 6.46267 14 5.66702C14 4.87136 13.684 4.1083 13.1214 3.54568C12.5587 2.98307 11.7957 2.667 11 2.667C10.2044 2.667 9.4413 2.98307 8.87869 3.54568L8.00003 4.42435L7.12136 3.54568C6.84278 3.26711 6.51206 3.04612 6.14808 2.89536C5.78411 2.74459 5.39399 2.66699 5.00003 2.66699C4.60606 2.66699 4.21595 2.74459 3.85197 2.89536C3.48799 3.04612 3.15727 3.26711 2.87869 3.54568V3.54568Z" stroke="#7065F0" stroke-width="2" stroke-linecap="round" stroke-linejoin="round"/>
</g>
</svg>
