<svg width="17" height="16" viewBox="0 0 17 16" fill="none" xmlns="http://www.w3.org/2000/svg">
<g id="Icon" clip-path="url(#clip0_29513_5986)">
<path id="Vector" d="M8.02751 14.6663C11.6942 14.6663 14.6942 11.6663 14.6942 7.99967C14.6942 4.33301 11.6942 1.33301 8.02751 1.33301C4.36084 1.33301 1.36084 4.33301 1.36084 7.99967C1.36084 11.6663 4.36084 14.6663 8.02751 14.6663Z" stroke="#7065F0" stroke-width="2" stroke-linecap="round" stroke-linejoin="round"/>
<path id="Vector_2" d="M6.02734 6.16609C6.02734 5.7685 6.21161 5.3872 6.5396 5.10607C6.86759 4.82493 7.31244 4.66699 7.77629 4.66699H8.27599C8.73984 4.66699 9.18469 4.82493 9.51268 5.10607C9.84067 5.3872 10.0249 5.7685 10.0249 6.16609C10.0433 6.49052 9.95582 6.81215 9.77557 7.08253C9.59532 7.3529 9.33209 7.55739 9.02554 7.66519C8.71899 7.80892 8.45576 8.08157 8.27551 8.44207C8.09526 8.80257 8.00774 8.73171 8.02614 9.16429" stroke="#7065F0" stroke-width="2" stroke-linecap="round" stroke-linejoin="round"/>
<path id="Vector_3" d="M8.02637 11.6621V11.6671" stroke="#7065F0" stroke-width="2" stroke-linecap="round" stroke-linejoin="round"/>
</g>
<defs>
<clipPath id="clip0_29513_5986">
<rect width="16" height="16" fill="white" transform="translate(0.0273438)"/>
</clipPath>
</defs>
</svg>
