<svg width="21" height="20" viewBox="0 0 21 20" fill="none" xmlns="http://www.w3.org/2000/svg">
<g id="Icon">
<path id="Vector" d="M7.99984 18.3337H12.9998C17.1665 18.3337 18.8332 16.667 18.8332 12.5003V7.50033C18.8332 3.33366 17.1665 1.66699 12.9998 1.66699H7.99984C3.83317 1.66699 2.1665 3.33366 2.1665 7.50033V12.5003C2.1665 16.667 3.83317 18.3337 7.99984 18.3337Z" stroke="#7065F0" stroke-width="2" stroke-linecap="round" stroke-linejoin="round"/>
<path id="Vector_2" d="M8.0835 10.0002V8.7669C8.0835 7.17524 9.2085 6.53357 10.5835 7.32524L11.6502 7.9419L12.7168 8.55857C14.0918 9.35024 14.0918 10.6502 12.7168 11.4419L11.6502 12.0586L10.5835 12.6752C9.2085 13.4669 8.0835 12.8169 8.0835 11.2336V10.0002Z" stroke="#7065F0" stroke-width="2" stroke-miterlimit="10" stroke-linecap="round" stroke-linejoin="round"/>
</g>
</svg>
