<svg width="21" height="20" viewBox="0 0 21 20" fill="none" xmlns="http://www.w3.org/2000/svg">
<g id="Icon" clip-path="url(#clip0_29515_5917)">
<path id="Vector" d="M3.8335 6.66634V4.99967C3.8335 4.55765 4.00909 4.13372 4.32165 3.82116C4.63421 3.5086 5.05814 3.33301 5.50016 3.33301H7.16683" stroke="white" stroke-width="2" stroke-linecap="round" stroke-linejoin="round"/>
<path id="Vector_2" d="M3.8335 13.333V14.9997C3.8335 15.4417 4.00909 15.8656 4.32165 16.1782C4.63421 16.4907 5.05814 16.6663 5.50016 16.6663H7.16683" stroke="white" stroke-width="2" stroke-linecap="round" stroke-linejoin="round"/>
<path id="Vector_3" d="M13.8335 3.33301H15.5002C15.9422 3.33301 16.3661 3.5086 16.6787 3.82116C16.9912 4.13372 17.1668 4.55765 17.1668 4.99967V6.66634" stroke="white" stroke-width="2" stroke-linecap="round" stroke-linejoin="round"/>
<path id="Vector_4" d="M13.8335 16.6663H15.5002C15.9422 16.6663 16.3661 16.4907 16.6787 16.1782C16.9912 15.8656 17.1668 15.4417 17.1668 14.9997V13.333" stroke="white" stroke-width="2" stroke-linecap="round" stroke-linejoin="round"/>
<path id="Vector_5" d="M10.5 9.16699V9.17533" stroke="white" stroke-width="2" stroke-linecap="round" stroke-linejoin="round"/>
<path id="Vector_6" d="M10.4998 15.0005L7.58317 10.8338C7.30239 10.3263 7.15888 9.75437 7.16682 9.17446C7.17475 8.59454 7.33385 8.02673 7.6284 7.52713C7.92296 7.02753 8.34277 6.61342 8.84635 6.32573C9.34994 6.03804 9.91987 5.88672 10.4998 5.88672C11.0798 5.88672 11.6497 6.03804 12.1533 6.32573C12.6569 6.61342 13.0767 7.02753 13.3713 7.52713C13.6658 8.02673 13.8249 8.59454 13.8329 9.17446C13.8408 9.75437 13.6973 10.3263 13.4165 10.8338L10.4998 15.0005Z" stroke="white" stroke-width="2" stroke-linecap="round" stroke-linejoin="round"/>
</g>
<defs>
<clipPath id="clip0_29515_5917">
<rect width="20" height="20" fill="white" transform="translate(0.5)"/>
</clipPath>
</defs>
</svg>
