<svg width="24" height="24" viewBox="0 0 24 24" fill="none" xmlns="http://www.w3.org/2000/svg">
<g id="Icon">
<path id="Vector" d="M20.4701 7.99672L13.989 2.9604C13.4202 2.51833 12.7202 2.27832 11.9996 2.27832C11.279 2.27832 10.5789 2.51833 10.0102 2.9604L3.52786 7.99672C3.1383 8.29939 2.82312 8.687 2.60639 9.12995C2.38966 9.5729 2.27711 10.0595 2.27734 10.5525V19.2945C2.27734 19.9385 2.53342 20.5561 2.98924 21.0115C3.44505 21.4669 4.06328 21.7228 4.7079 21.7228H19.2912C19.9359 21.7228 20.5541 21.4669 21.0099 21.0115C21.4657 20.5561 21.7218 19.9385 21.7218 19.2945V10.5525C21.7218 9.55327 21.26 8.60987 20.4701 7.99672Z" fill="white" stroke="white" stroke-width="2" stroke-linecap="round" stroke-linejoin="round"/>
</g>
</svg>
