<svg width="32" height="32" viewBox="0 0 32 32" fill="none" xmlns="http://www.w3.org/2000/svg">
<g id="Icon">
<path id="Vector" d="M11.9998 29.3332H19.9998C26.6665 29.3332 29.3332 26.6665 29.3332 19.9998V11.9998C29.3332 5.33317 26.6665 2.6665 19.9998 2.6665H11.9998C5.33317 2.6665 2.6665 5.33317 2.6665 11.9998V19.9998C2.6665 26.6665 5.33317 29.3332 11.9998 29.3332Z" stroke="white" stroke-width="3" stroke-linecap="round" stroke-linejoin="round"/>
<path id="Vector_2" d="M12.1333 16V14.0267C12.1333 11.48 13.9333 10.4533 16.1333 11.72L17.84 12.7067L19.5466 13.6933C21.7466 14.96 21.7466 17.04 19.5466 18.3067L17.84 19.2933L16.1333 20.28C13.9333 21.5467 12.1333 20.5067 12.1333 17.9733V16Z" stroke="white" stroke-width="3" stroke-miterlimit="10" stroke-linecap="round" stroke-linejoin="round"/>
</g>
</svg>
