<svg width="164" height="52" viewBox="0 0 164 52" fill="none" xmlns="http://www.w3.org/2000/svg">
<g id="Group 14061">
<g id="Union">
<mask id="path-1-inside-1_181_3317" fill="white">
<path fill-rule="evenodd" clip-rule="evenodd" d="M37.329 0.512276C36.5712 -0.161645 35.4288 -0.161644 34.671 0.512277L31.3806 3.43817H8C3.58172 3.43817 0 7.01988 0 11.4382V43.9982C0 48.4164 3.58172 51.9982 8 51.9982H156C160.418 51.9982 164 48.4165 164 43.9982V11.4382C164 7.01989 160.418 3.43817 156 3.43817H40.6194L37.329 0.512276Z"/>
</mask>
<path fill-rule="evenodd" clip-rule="evenodd" d="M37.329 0.512276C36.5712 -0.161645 35.4288 -0.161644 34.671 0.512277L31.3806 3.43817H8C3.58172 3.43817 0 7.01988 0 11.4382V43.9982C0 48.4164 3.58172 51.9982 8 51.9982H156C160.418 51.9982 164 48.4165 164 43.9982V11.4382C164 7.01989 160.418 3.43817 156 3.43817H40.6194L37.329 0.512276Z" fill="white"/>
<path d="M34.671 0.512277L35.6677 1.6332V1.6332L34.671 0.512277ZM37.329 0.512276L36.3323 1.6332V1.6332L37.329 0.512276ZM31.3806 3.43817V4.93817H31.9511L32.3774 4.55909L31.3806 3.43817ZM40.6194 3.43817L39.6226 4.55909L40.0489 4.93817H40.6194V3.43817ZM35.6677 1.6332C35.8572 1.46472 36.1428 1.46472 36.3323 1.6332L38.3258 -0.608642C36.9995 -1.78801 35.0005 -1.788 33.6742 -0.608642L35.6677 1.6332ZM32.3774 4.55909L35.6677 1.6332L33.6742 -0.608642L30.3839 2.31725L32.3774 4.55909ZM8 4.93817H31.3806V1.93817H8V4.93817ZM1.5 11.4382C1.5 7.84831 4.41015 4.93817 8 4.93817V1.93817C2.7533 1.93817 -1.5 6.19145 -1.5 11.4382H1.5ZM1.5 43.9982V11.4382H-1.5V43.9982H1.5ZM8 50.4982C4.41015 50.4982 1.5 47.588 1.5 43.9982H-1.5C-1.5 49.2449 2.7533 53.4982 8 53.4982V50.4982ZM156 50.4982H8V53.4982H156V50.4982ZM162.5 43.9982C162.5 47.588 159.59 50.4982 156 50.4982V53.4982C161.247 53.4982 165.5 49.2449 165.5 43.9982H162.5ZM162.5 11.4382V43.9982H165.5V11.4382H162.5ZM156 4.93817C159.59 4.93817 162.5 7.84832 162.5 11.4382H165.5C165.5 6.19146 161.247 1.93817 156 1.93817V4.93817ZM40.6194 4.93817H156V1.93817H40.6194V4.93817ZM36.3323 1.6332L39.6226 4.55909L41.6161 2.31725L38.3258 -0.608643L36.3323 1.6332Z" fill="#E0DEF7" mask="url(#path-1-inside-1_181_3317)"/>
</g>
<rect id="Rectangle 2605" x="16" y="18" width="40" height="6" rx="2" fill="#100A55"/>
<rect id="Rectangle 2607" x="16" y="32" width="104" height="6" rx="2" fill="#E8E6F9"/>
</g>
</svg>
