<svg width="164" height="51" viewBox="0 0 164 51" fill="none" xmlns="http://www.w3.org/2000/svg">
<g id="Group 14060">
<g id="Union">
<mask id="path-1-inside-1_181_3316" fill="white">
<path fill-rule="evenodd" clip-rule="evenodd" d="M129.329 0.50544C128.571 -0.168481 127.429 -0.16848 126.671 0.505441L123.866 3H8C3.58172 3 0 6.58172 0 11V43C0 47.4183 3.58172 51 8 51H156C160.418 51 164 47.4183 164 43V11C164 6.58172 160.418 3 156 3H132.134L129.329 0.50544Z"/>
</mask>
<path fill-rule="evenodd" clip-rule="evenodd" d="M129.329 0.50544C128.571 -0.168481 127.429 -0.16848 126.671 0.505441L123.866 3H8C3.58172 3 0 6.58172 0 11V43C0 47.4183 3.58172 51 8 51H156C160.418 51 164 47.4183 164 43V11C164 6.58172 160.418 3 156 3H132.134L129.329 0.50544Z" fill="white"/>
<path d="M126.671 0.505441L127.668 1.62636V1.62636L126.671 0.505441ZM129.329 0.50544L128.332 1.62636L128.332 1.62636L129.329 0.50544ZM123.866 3V4.5H124.436L124.862 4.12092L123.866 3ZM132.134 3L131.138 4.12092L131.564 4.5H132.134V3ZM127.668 1.62636C127.857 1.45788 128.143 1.45788 128.332 1.62636L130.326 -0.615476C129 -1.79484 127 -1.79484 125.674 -0.615475L127.668 1.62636ZM124.862 4.12092L127.668 1.62636L125.674 -0.615478L122.869 1.87908L124.862 4.12092ZM8 4.5H123.866V1.5H8V4.5ZM1.5 11C1.5 7.41015 4.41015 4.5 8 4.5V1.5C2.75329 1.5 -1.5 5.7533 -1.5 11H1.5ZM1.5 43V11H-1.5V43H1.5ZM8 49.5C4.41015 49.5 1.5 46.5899 1.5 43H-1.5C-1.5 48.2467 2.7533 52.5 8 52.5V49.5ZM156 49.5H8V52.5H156V49.5ZM162.5 43C162.5 46.5899 159.59 49.5 156 49.5V52.5C161.247 52.5 165.5 48.2467 165.5 43H162.5ZM162.5 11V43H165.5V11H162.5ZM156 4.5C159.59 4.5 162.5 7.41015 162.5 11H165.5C165.5 5.75329 161.247 1.5 156 1.5V4.5ZM132.134 4.5H156V1.5H132.134V4.5ZM128.332 1.62636L131.138 4.12092L133.131 1.87908L130.326 -0.615479L128.332 1.62636Z" fill="#E0DEF7" mask="url(#path-1-inside-1_181_3316)"/>
</g>
<rect id="Rectangle 2606" x="16" y="17" width="32" height="6" rx="2" fill="#7065F0"/>
<rect id="Rectangle 2608" x="16" y="31" width="74" height="6" rx="2" fill="#E8E6F9"/>
<rect id="Rectangle 2609" x="98" y="31" width="34" height="6" rx="2" fill="#E8E6F9"/>
</g>
</svg>
