<svg width="20" height="20" viewBox="0 0 20 20" fill="none" xmlns="http://www.w3.org/2000/svg">
<g id="Icon" opacity="0.4">
<g id="people">
<g id="Group">
<path id="Vector" d="M15.0004 5.967C14.9504 5.95866 14.8921 5.95866 14.8421 5.967C13.6921 5.92533 12.7754 4.98366 12.7754 3.81699C12.7754 2.62533 13.7337 1.66699 14.9254 1.66699C16.1171 1.66699 17.0754 2.63366 17.0754 3.81699C17.0671 4.98366 16.1504 5.92533 15.0004 5.967Z" stroke="#100A55" stroke-width="2" stroke-linecap="round" stroke-linejoin="round"/>
<path id="Vector_2" d="M14.1422 12.0338C15.2839 12.2255 16.5422 12.0255 17.4255 11.4338C18.6005 10.6505 18.6005 9.36713 17.4255 8.58379C16.5339 7.99213 15.2589 7.79212 14.1172 7.99212" stroke="#100A55" stroke-width="2" stroke-linecap="round" stroke-linejoin="round"/>
</g>
<g id="Group_2">
<path id="Vector_3" d="M4.97344 5.967C5.02344 5.95866 5.08177 5.95866 5.13177 5.967C6.28177 5.92533 7.19844 4.98366 7.19844 3.81699C7.19844 2.62533 6.24011 1.66699 5.04844 1.66699C3.85677 1.66699 2.89844 2.63366 2.89844 3.81699C2.90677 4.98366 3.82344 5.92533 4.97344 5.967Z" stroke="#100A55" stroke-width="2" stroke-linecap="round" stroke-linejoin="round"/>
<path id="Vector_4" d="M5.83255 12.0338C4.69088 12.2255 3.43255 12.0255 2.54922 11.4338C1.37422 10.6505 1.37422 9.36713 2.54922 8.58379C3.44089 7.99213 4.71588 7.79212 5.85755 7.99212" stroke="#100A55" stroke-width="2" stroke-linecap="round" stroke-linejoin="round"/>
</g>
<g id="Group_3">
<path id="Vector_5" d="M10.0004 12.1916C9.95039 12.1833 9.89206 12.1833 9.84206 12.1916C8.69206 12.1499 7.77539 11.2083 7.77539 10.0416C7.77539 8.84994 8.73372 7.8916 9.92539 7.8916C11.1171 7.8916 12.0754 8.85827 12.0754 10.0416C12.0671 11.2083 11.1504 12.1583 10.0004 12.1916Z" stroke="#100A55" stroke-width="2" stroke-linecap="round" stroke-linejoin="round"/>
<path id="Vector_6" d="M7.57461 14.8168C6.39961 15.6001 6.39961 16.8835 7.57461 17.6668C8.90794 18.5585 11.0913 18.5585 12.4246 17.6668C13.5996 16.8835 13.5996 15.6001 12.4246 14.8168C11.0996 13.9335 8.90794 13.9335 7.57461 14.8168Z" stroke="#100A55" stroke-width="2" stroke-linecap="round" stroke-linejoin="round"/>
</g>
</g>
</g>
</svg>
