<svg width="20" height="20" viewBox="0 0 20 20" fill="none" xmlns="http://www.w3.org/2000/svg">
<g id="Icon" opacity="0.4" clip-path="url(#clip0_29716_11500)">
<path id="Vector" d="M9.99935 18.3337C14.5827 18.3337 18.3327 14.5837 18.3327 10.0003C18.3327 5.41699 14.5827 1.66699 9.99935 1.66699C5.41602 1.66699 1.66602 5.41699 1.66602 10.0003C1.66602 14.5837 5.41602 18.3337 9.99935 18.3337Z" stroke="#100A55" stroke-width="2" stroke-linecap="round" stroke-linejoin="round"/>
<path id="Vector_2" d="M7.5 7.70688C7.5 7.2099 7.73033 6.73327 8.14032 6.38185C8.55031 6.03043 9.10637 5.83301 9.68618 5.83301H10.3108C10.8906 5.83301 11.4467 6.03043 11.8567 6.38185C12.2667 6.73327 12.497 7.2099 12.497 7.70688C12.52 8.11242 12.4106 8.51445 12.1853 8.85243C11.96 9.1904 11.6309 9.44601 11.2477 9.58075C10.8646 9.76041 10.5355 10.1012 10.3102 10.5519C10.0849 11.0025 9.9755 10.9139 9.9985 11.4546" stroke="#000929" stroke-width="2" stroke-linecap="round" stroke-linejoin="round"/>
<path id="Vector_3" d="M9.99805 14.5781V14.5844" stroke="#000929" stroke-width="2" stroke-linecap="round" stroke-linejoin="round"/>
</g>
<defs>
<clipPath id="clip0_29716_11500">
<rect width="20" height="20" fill="white"/>
</clipPath>
</defs>
</svg>
