<svg width="20" height="20" viewBox="0 0 20 20" fill="none" xmlns="http://www.w3.org/2000/svg">
<g id="Icon" opacity="0.4">
<g id="Group">
<path id="Vector" d="M7.91602 11.4585C7.91602 12.2669 8.54103 12.9169 9.30769 12.9169H10.8743C11.541 12.9169 12.0827 12.3502 12.0827 11.6419C12.0827 10.8835 11.7494 10.6085 11.2577 10.4335L8.74935 9.55852C8.25768 9.38352 7.92436 9.11686 7.92436 8.35019C7.92436 7.65019 8.46601 7.0752 9.13268 7.0752H10.6993C11.466 7.0752 12.091 7.7252 12.091 8.53353" stroke="#100A55" stroke-width="2" stroke-linecap="round" stroke-linejoin="round"/>
<path id="Vector_2" d="M10 6.25V13.75" stroke="#100A55" stroke-width="2" stroke-linecap="round" stroke-linejoin="round"/>
</g>
<path id="Vector_3" d="M18.3327 10.0003C18.3327 14.6003 14.5993 18.3337 9.99935 18.3337C5.39935 18.3337 1.66602 14.6003 1.66602 10.0003C1.66602 5.40033 5.39935 1.66699 9.99935 1.66699" stroke="#100A55" stroke-width="2" stroke-linecap="round" stroke-linejoin="round"/>
<path id="Vector_4" d="M14.166 2.5V5.83333H17.4993" stroke="#100A55" stroke-width="2" stroke-linecap="round" stroke-linejoin="round"/>
<path id="Vector_5" d="M18.3327 1.66699L14.166 5.83366" stroke="#100A55" stroke-width="2" stroke-linecap="round" stroke-linejoin="round"/>
</g>
</svg>
