<svg width="20" height="20" viewBox="0 0 20 20" fill="none" xmlns="http://www.w3.org/2000/svg">
<g id="Icon" opacity="0.4" clip-path="url(#clip0_29716_11464)">
<path id="Vector" d="M17.2598 6.56848L11.7046 2.25163C11.217 1.87272 10.617 1.66699 9.99935 1.66699C9.38169 1.66699 8.78165 1.87272 8.29414 2.25163L2.73789 6.56848C2.40398 6.82791 2.13382 7.16015 1.94805 7.53982C1.76228 7.91949 1.66582 8.33656 1.66602 8.75916V16.2522C1.66602 16.8043 1.88551 17.3337 2.27621 17.724C2.66691 18.1144 3.19681 18.3337 3.74935 18.3337H16.2494C16.8019 18.3337 17.3318 18.1144 17.7225 17.724C18.1132 17.3337 18.3327 16.8043 18.3327 16.2522V8.75916C18.3327 7.90266 17.9369 7.09403 17.2598 6.56848Z" stroke="#100A55" stroke-width="2" stroke-linecap="round" stroke-linejoin="round"/>
</g>
<defs>
<clipPath id="clip0_29716_11464">
<rect width="20" height="20" fill="white"/>
</clipPath>
</defs>
</svg>
