<svg width="20" height="20" viewBox="0 0 20 20" fill="none" xmlns="http://www.w3.org/2000/svg">
<g id="Icon">
<path id="Vector" d="M14.166 2.91699H5.83268C3.33268 2.91699 1.66602 4.16699 1.66602 7.08366V12.917C1.66602 15.8337 3.33268 17.0837 5.83268 17.0837H14.166C16.666 17.0837 18.3327 15.8337 18.3327 12.917V7.08366C18.3327 4.16699 16.666 2.91699 14.166 2.91699ZM14.5577 7.99199L11.9493 10.0753C11.3993 10.517 10.6993 10.7337 9.99935 10.7337C9.29935 10.7337 8.59102 10.517 8.04935 10.0753L5.44102 7.99199C5.17435 7.77533 5.13268 7.37533 5.34102 7.10866C5.55768 6.84199 5.94935 6.79199 6.21602 7.00866L8.82435 9.09199C9.45768 9.60033 10.5327 9.60033 11.166 9.09199L13.7744 7.00866C14.041 6.79199 14.441 6.83366 14.6493 7.10866C14.866 7.37533 14.8243 7.77533 14.5577 7.99199Z" fill="#7065F0"/>
</g>
</svg>
