<svg width="20" height="20" viewBox="0 0 20 20" fill="none" xmlns="http://www.w3.org/2000/svg">
<g id="Icon" opacity="0.5" clip-path="url(#clip0_183_3252)">
<path id="Vector" d="M4.16732 10.8337C4.62755 10.8337 5.00065 10.4606 5.00065 10.0003C5.00065 9.54009 4.62755 9.16699 4.16732 9.16699C3.70708 9.16699 3.33398 9.54009 3.33398 10.0003C3.33398 10.4606 3.70708 10.8337 4.16732 10.8337Z" stroke="#000929" stroke-width="1.5" stroke-linecap="round" stroke-linejoin="round"/>
<path id="Vector_2" d="M9.99935 10.8337C10.4596 10.8337 10.8327 10.4606 10.8327 10.0003C10.8327 9.54009 10.4596 9.16699 9.99935 9.16699C9.53911 9.16699 9.16602 9.54009 9.16602 10.0003C9.16602 10.4606 9.53911 10.8337 9.99935 10.8337Z" stroke="#000929" stroke-width="1.5" stroke-linecap="round" stroke-linejoin="round"/>
<path id="Vector_3" d="M15.8333 10.8337C16.2936 10.8337 16.6667 10.4606 16.6667 10.0003C16.6667 9.54009 16.2936 9.16699 15.8333 9.16699C15.3731 9.16699 15 9.54009 15 10.0003C15 10.4606 15.3731 10.8337 15.8333 10.8337Z" stroke="#000929" stroke-width="1.5" stroke-linecap="round" stroke-linejoin="round"/>
</g>
<defs>
<clipPath id="clip0_183_3252">
<rect width="20" height="20" fill="white"/>
</clipPath>
</defs>
</svg>
