<svg width="16" height="16" viewBox="0 0 16 16" fill="none" xmlns="http://www.w3.org/2000/svg">
<g id="Icon" clip-path="url(#clip0_184_2654)">
<path id="Vector" d="M9.9998 4.66632L5.66647 8.99965C5.40125 9.26487 5.25226 9.62458 5.25226 9.99965C5.25226 10.3747 5.40125 10.7344 5.66647 10.9997C5.93169 11.2649 6.2914 11.4139 6.66647 11.4139C7.04154 11.4139 7.40125 11.2649 7.66647 10.9997L11.9998 6.66632C12.5302 6.13588 12.8282 5.41646 12.8282 4.66632C12.8282 3.91617 12.5302 3.19675 11.9998 2.66632C11.4694 2.13588 10.7499 1.83789 9.9998 1.83789C9.24966 1.83789 8.53024 2.13588 7.9998 2.66632L3.66647 6.99965C2.87082 7.7953 2.42383 8.87443 2.42383 9.99965C2.42383 11.1249 2.87082 12.204 3.66647 12.9997C4.46212 13.7953 5.54125 14.2423 6.66647 14.2423C7.79169 14.2423 8.87082 13.7953 9.66647 12.9997L13.9998 8.66632" stroke="#000929" stroke-width="1.5" stroke-linecap="round" stroke-linejoin="round"/>
</g>
<defs>
<clipPath id="clip0_184_2654">
<rect width="16" height="16" fill="white"/>
</clipPath>
</defs>
</svg>
