<svg width="16" height="16" viewBox="0 0 16 16" fill="none" xmlns="http://www.w3.org/2000/svg">
<g id="Icon">
<g id="send">
<path id="Vector" d="M12.0468 5.67342L6.34018 2.82009C2.50684 0.90009 0.933509 2.47342 2.85351 6.30676L3.43351 7.46676C3.60018 7.80676 3.60018 8.20009 3.43351 8.54009L2.85351 9.69342C0.933509 13.5268 2.50018 15.1001 6.34018 13.1801L12.0468 10.3268C14.6068 9.04676 14.6068 6.95342 12.0468 5.67342ZM9.89351 8.50009H6.29351C6.02018 8.50009 5.79351 8.27342 5.79351 8.00009C5.79351 7.72676 6.02018 7.50009 6.29351 7.50009H9.89351C10.1668 7.50009 10.3935 7.72676 10.3935 8.00009C10.3935 8.27342 10.1668 8.50009 9.89351 8.50009Z" fill="white"/>
</g>
</g>
</svg>
