<svg width="32" height="32" viewBox="0 0 32 32" fill="none" xmlns="http://www.w3.org/2000/svg">
<g id="Frame" clip-path="url(#clip0_29349_9390)">
<path id="Vector" d="M25.3335 11.6134L18.2229 6.08277C17.5989 5.59731 16.8308 5.33374 16.0402 5.33374C15.2496 5.33374 14.4815 5.59731 13.8575 6.08277L6.74554 11.6134C6.31813 11.9458 5.97233 12.3715 5.73454 12.8579C5.49676 13.3443 5.37328 13.8787 5.37354 14.4201V24.0201C5.37354 24.7273 5.65449 25.4056 6.15458 25.9057C6.65468 26.4058 7.33296 26.6868 8.0402 26.6868H24.0402C24.7474 26.6868 25.4257 26.4058 25.9258 25.9057C26.4259 25.4056 26.7069 24.7273 26.7069 24.0201V14.4201C26.7069 13.3228 26.2002 12.2868 25.3335 11.6134Z" fill="#7065F0" stroke="#7065F0" stroke-width="3" stroke-linecap="round" stroke-linejoin="round"/>
<path id="Vector_2" d="M21.3332 20C18.3865 21.7773 13.6105 21.7773 10.6665 20" stroke="#F9FAFB" stroke-width="3" stroke-linecap="round" stroke-linejoin="round"/>
</g>
<defs>
<clipPath id="clip0_29349_9390">
<rect width="32" height="32" fill="white"/>
</clipPath>
</defs>
</svg>
