<svg width="32" height="32" viewBox="0 0 32 32" fill="none" xmlns="http://www.w3.org/2000/svg">
<g id="Icon">
<g id="vuesax/bold/people">
<g id="people">
<path id="Vector" d="M23.3734 10.3598C23.2801 10.3465 23.1867 10.3465 23.0934 10.3598C21.0267 10.2932 19.3867 8.59984 19.3867 6.51984C19.3867 4.39984 21.1067 2.6665 23.2401 2.6665C25.3601 2.6665 27.0934 4.3865 27.0934 6.51984C27.0801 8.59984 25.4401 10.2932 23.3734 10.3598Z" fill="white"/>
<path id="Vector_2" d="M27.72 19.6C26.2266 20.6 24.1333 20.9734 22.2 20.72C22.7066 19.6267 22.9733 18.4134 22.9866 17.1334C22.9866 15.8001 22.6933 14.5334 22.1333 13.4267C24.1066 13.16 26.2 13.5334 27.7066 14.5334C29.8133 15.92 29.8133 18.2 27.72 19.6Z" fill="white"/>
<path id="Vector_3" d="M8.58655 10.3598C8.67988 10.3465 8.77322 10.3465 8.86655 10.3598C10.9332 10.2932 12.5732 8.59984 12.5732 6.51984C12.5732 4.3865 10.8532 2.6665 8.71988 2.6665C6.59988 2.6665 4.87988 4.3865 4.87988 6.51984C4.87988 8.59984 6.51988 10.2932 8.58655 10.3598Z" fill="white"/>
<path id="Vector_4" d="M8.73349 17.1331C8.73349 18.4265 9.01349 19.6531 9.52016 20.7598C7.64016 20.9598 5.68016 20.5598 4.24016 19.6131C2.13349 18.2131 2.13349 15.9331 4.24016 14.5331C5.66682 13.5731 7.68016 13.1865 9.57349 13.3998C9.02682 14.5198 8.73349 15.7865 8.73349 17.1331Z" fill="white"/>
<path id="Vector_5" d="M16.1599 21.16C16.0532 21.1467 15.9332 21.1467 15.8132 21.16C13.3599 21.08 11.3999 19.0667 11.3999 16.5867C11.4132 14.0533 13.4532 12 15.9999 12C18.5332 12 20.5866 14.0533 20.5866 16.5867C20.5732 19.0667 18.6266 21.08 16.1599 21.16Z" fill="white"/>
<path id="Vector_6" d="M11.8269 23.92C9.81356 25.2667 9.81356 27.48 11.8269 28.8134C14.1202 30.3467 17.8802 30.3467 20.1736 28.8134C22.1869 27.4667 22.1869 25.2534 20.1736 23.92C17.8936 22.3867 14.1336 22.3867 11.8269 23.92Z" fill="white"/>
</g>
</g>
</g>
</svg>
