<svg width="16" height="16" viewBox="0 0 16 16" fill="none" xmlns="http://www.w3.org/2000/svg">
<g id="Icon">
<g id="key">
<path id="Vector" d="M13.1933 9.95338C11.8199 11.32 9.85327 11.74 8.1266 11.2L4.9866 14.3334C4.75993 14.5667 4.31327 14.7067 3.99327 14.66L2.53993 14.46C2.05993 14.3934 1.61327 13.94 1.53993 13.46L1.33993 12.0067C1.29327 11.6867 1.4466 11.24 1.6666 11.0134L4.79993 7.88005C4.2666 6.14671 4.67993 4.18005 6.05327 2.81338C8.01994 0.846712 11.2133 0.846712 13.1866 2.81338C15.1599 4.78005 15.1599 7.98671 13.1933 9.95338Z" fill="white"/>
<path id="Vector_2" d="M4.59326 11.6602L6.1266 13.1935" stroke="#7065F0" stroke-width="2" stroke-miterlimit="10" stroke-linecap="round" stroke-linejoin="round"/>
<path id="Vector_3" d="M9.6665 7.3335C10.2188 7.3335 10.6665 6.88578 10.6665 6.3335C10.6665 5.78121 10.2188 5.3335 9.6665 5.3335C9.11422 5.3335 8.6665 5.78121 8.6665 6.3335C8.6665 6.88578 9.11422 7.3335 9.6665 7.3335Z" fill="#7065F0" stroke="#7065F0" stroke-width="2" stroke-linecap="round" stroke-linejoin="round"/>
</g>
</g>
</svg>
