<svg width="32" height="32" viewBox="0 0 32 32" fill="none" xmlns="http://www.w3.org/2000/svg">
<g id="Icon">
<path id="Vector" d="M6.6665 10.6665C4.45317 10.6665 2.6665 12.4532 2.6665 14.6665V25.3332C2.6665 27.5465 4.45317 29.3332 6.6665 29.3332H8.6665C10.1332 29.3332 11.3332 28.1332 11.3332 26.6665V13.3332C11.3332 11.8665 10.1332 10.6665 8.6665 10.6665H6.6665ZM7.99984 22.6665C7.99984 23.2132 7.5465 23.6665 6.99984 23.6665C6.45317 23.6665 5.99984 23.2132 5.99984 22.6665V17.3332C5.99984 16.7865 6.45317 16.3332 6.99984 16.3332C7.5465 16.3332 7.99984 16.7865 7.99984 17.3332V22.6665Z" fill="white"/>
<path id="Vector_2" d="M25.3335 2.6665H17.3335C15.1202 2.6665 13.3335 4.45317 13.3335 6.6665V25.3332C13.3335 27.5465 15.1202 29.3332 17.3335 29.3332H18.0002C18.3735 29.3332 18.6668 29.0398 18.6668 28.6665V23.9998C18.6668 23.2665 19.2668 22.6665 20.0002 22.6665H22.6668C23.4002 22.6665 24.0002 23.2665 24.0002 23.9998V28.6665C24.0002 29.0398 24.2935 29.3332 24.6668 29.3332H25.3335C27.5468 29.3332 29.3335 27.5465 29.3335 25.3332V6.6665C29.3335 4.45317 27.5468 2.6665 25.3335 2.6665ZM19.6668 17.3332C19.6668 17.8798 19.2135 18.3332 18.6668 18.3332C18.1202 18.3332 17.6668 17.8798 17.6668 17.3332V10.6665C17.6668 10.1198 18.1202 9.6665 18.6668 9.6665C19.2135 9.6665 19.6668 10.1198 19.6668 10.6665V17.3332ZM25.0002 17.3332C25.0002 17.8798 24.5468 18.3332 24.0002 18.3332C23.4535 18.3332 23.0002 17.8798 23.0002 17.3332V10.6665C23.0002 10.1198 23.4535 9.6665 24.0002 9.6665C24.5468 9.6665 25.0002 10.1198 25.0002 10.6665V17.3332Z" fill="white"/>
</g>
</svg>
